<svg xmlns="http://www.w3.org/2000/svg" width="640" height="420" viewBox="0 0 640 420" fill="none">
  <path d="M83 382C191 270 315 176 548 58" stroke="#70B43A" stroke-width="4" opacity=".45"/>
  <g fill="#70B43A" opacity=".22">
    <path d="M213 277C153 258 119 225 95 181C145 189 184 211 232 257C236 265 228 276 213 277Z"/>
    <path d="M274 228C216 207 183 169 161 126C212 136 250 162 292 208C295 217 289 226 274 228Z"/>
    <path d="M340 184C289 158 261 120 243 76C292 91 327 116 360 163C363 172 355 181 340 184Z"/>
    <path d="M405 148C361 116 342 78 332 36C375 54 407 82 427 126C428 136 420 145 405 148Z"/>
    <path d="M261 250C253 306 222 342 182 372C186 322 204 280 245 237C255 233 264 238 261 250Z"/>
    <path d="M326 206C321 263 294 301 255 334C257 282 273 241 311 195C320 190 329 195 326 206Z"/>
    <path d="M391 164C390 219 367 258 331 293C329 243 342 201 377 154C386 149 394 153 391 164Z"/>
    <path d="M456 127C459 179 439 218 407 253C402 206 412 166 443 119C452 114 459 117 456 127Z"/>
  </g>
</svg>
