<svg xmlns="http://www.w3.org/2000/svg" width="880" height="620" viewBox="0 0 880 620" fill="none">
  <g stroke="#C7A34C" stroke-width="1" opacity=".55">
    <path d="M-20 95C85 22 188 31 280 88C370 144 472 153 558 91C645 29 747 19 910 77"/>
    <path d="M-30 130C73 57 180 65 272 122C365 180 467 187 554 126C641 65 748 51 920 112"/>
    <path d="M-45 171C58 99 166 105 260 163C352 219 456 228 544 166C632 105 746 90 930 153"/>
    <path d="M-60 220C44 147 154 153 247 211C340 269 446 276 535 214C624 153 745 137 940 202"/>
    <path d="M-72 280C33 205 141 211 236 269C331 328 438 335 527 272C616 211 744 193 952 261"/>
  </g>
  <g stroke="#58BFD0" opacity=".35">
    <path d="M552 80C596 126 619 173 624 224C629 279 608 326 558 365C504 407 476 455 475 510"/>
    <path d="M612 62C658 111 681 162 685 214C690 269 668 320 616 361C560 405 532 455 532 514"/>
  </g>
</svg>
